<mxfile host="65bd71144e">
    <diagram id="yyNnXC2hBrJY6bm2mzGz" name="Page-1">
        <mxGraphModel dx="625" dy="1039" grid="1" gridSize="10" guides="1" tooltips="1" connect="1" arrows="1" fold="1" page="1" pageScale="1" pageWidth="827" pageHeight="1169" math="0" shadow="0">
            <root>
                <mxCell id="0"/>
                <mxCell id="1" parent="0"/>
                <mxCell id="XSlXfkg2FwHnw0k_7yCL-47" value="" style="shape=cylinder3;whiteSpace=wrap;html=1;boundedLbl=1;backgroundOutline=1;size=16.48147696035879;" parent="1" vertex="1">
                    <mxGeometry x="270" y="10" width="150" height="90" as="geometry"/>
                </mxCell>
                <mxCell id="XSlXfkg2FwHnw0k_7yCL-48" value="Main" style="text;html=1;strokeColor=none;fillColor=none;align=center;verticalAlign=middle;whiteSpace=wrap;rounded=0;fontStyle=1" parent="1" vertex="1">
                    <mxGeometry x="314" y="45" width="60" height="15" as="geometry"/>
                </mxCell>
                <mxCell id="XSlXfkg2FwHnw0k_7yCL-51" style="edgeStyle=orthogonalEdgeStyle;rounded=0;orthogonalLoop=1;jettySize=auto;html=1;fontSize=8;" parent="1" edge="1">
                    <mxGeometry relative="1" as="geometry">
                        <mxPoint x="510" y="60" as="sourcePoint"/>
                        <mxPoint x="420" y="59.82000000000005" as="targetPoint"/>
                        <Array as="points">
                            <mxPoint x="420" y="60"/>
                        </Array>
                    </mxGeometry>
                </mxCell>
                <mxCell id="XSlXfkg2FwHnw0k_7yCL-74" style="edgeStyle=orthogonalEdgeStyle;rounded=0;orthogonalLoop=1;jettySize=auto;html=1;exitX=1;exitY=0.5;exitDx=0;exitDy=0;strokeWidth=1;fontSize=12;" parent="1" source="XSlXfkg2FwHnw0k_7yCL-49" edge="1">
                    <mxGeometry relative="1" as="geometry">
                        <mxPoint x="610" y="55.15384615384619" as="targetPoint"/>
                    </mxGeometry>
                </mxCell>
                <mxCell id="XSlXfkg2FwHnw0k_7yCL-49" value="Simple&lt;br&gt;Logic" style="rounded=0;whiteSpace=wrap;html=1;" parent="1" vertex="1">
                    <mxGeometry x="510" y="15" width="70" height="80" as="geometry"/>
                </mxCell>
                <mxCell id="XSlXfkg2FwHnw0k_7yCL-52" style="edgeStyle=orthogonalEdgeStyle;rounded=0;orthogonalLoop=1;jettySize=auto;html=1;fontSize=8;" parent="1" edge="1">
                    <mxGeometry relative="1" as="geometry">
                        <mxPoint x="420" y="49.82000000000005" as="sourcePoint"/>
                        <mxPoint x="510" y="50" as="targetPoint"/>
                        <Array as="points">
                            <mxPoint x="465" y="50"/>
                            <mxPoint x="510" y="50"/>
                        </Array>
                    </mxGeometry>
                </mxCell>
                <mxCell id="XSlXfkg2FwHnw0k_7yCL-53" value="large long-term database containing historical data. Disk&amp;nbsp;" style="text;html=1;strokeColor=none;fillColor=none;align=center;verticalAlign=top;whiteSpace=wrap;rounded=0;fontStyle=2;fontSize=8;" parent="1" vertex="1">
                    <mxGeometry x="269" y="60" width="150" height="25" as="geometry"/>
                </mxCell>
                <mxCell id="XSlXfkg2FwHnw0k_7yCL-54" value="results of queries" style="text;html=1;strokeColor=none;fillColor=none;align=center;verticalAlign=top;whiteSpace=wrap;rounded=0;fontStyle=2;fontSize=8;" parent="1" vertex="1">
                    <mxGeometry x="420" y="30" width="90" height="25" as="geometry"/>
                </mxCell>
                <mxCell id="XSlXfkg2FwHnw0k_7yCL-57" value="complex analytical queries" style="text;html=1;strokeColor=none;fillColor=none;align=center;verticalAlign=top;whiteSpace=wrap;rounded=0;fontStyle=2;fontSize=8;" parent="1" vertex="1">
                    <mxGeometry x="420" y="60" width="90" height="25" as="geometry"/>
                </mxCell>
                <mxCell id="XSlXfkg2FwHnw0k_7yCL-68" value="" style="endArrow=classic;html=1;rounded=0;fontSize=8;strokeWidth=2;" parent="1" edge="1">
                    <mxGeometry width="50" height="50" relative="1" as="geometry">
                        <mxPoint x="270" y="54.75999999999999" as="sourcePoint"/>
                        <mxPoint x="200" y="54.75999999999999" as="targetPoint"/>
                    </mxGeometry>
                </mxCell>
                <mxCell id="XSlXfkg2FwHnw0k_7yCL-69" value="" style="rounded=0;whiteSpace=wrap;html=1;" parent="1" vertex="1">
                    <mxGeometry x="60" y="15" width="140" height="80" as="geometry"/>
                </mxCell>
                <mxCell id="XSlXfkg2FwHnw0k_7yCL-71" value="load small section of history" style="text;html=1;strokeColor=none;fillColor=none;align=center;verticalAlign=top;whiteSpace=wrap;rounded=0;fontStyle=2;fontSize=8;" parent="1" vertex="1">
                    <mxGeometry x="200" y="23" width="70" height="25" as="geometry"/>
                </mxCell>
                <mxCell id="XSlXfkg2FwHnw0k_7yCL-72" value="Data Frames" style="rounded=0;whiteSpace=wrap;html=1;" parent="1" vertex="1">
                    <mxGeometry x="125" y="21.5" width="70" height="67" as="geometry"/>
                </mxCell>
                <mxCell id="XSlXfkg2FwHnw0k_7yCL-77" style="edgeStyle=orthogonalEdgeStyle;rounded=0;orthogonalLoop=1;jettySize=auto;html=1;exitX=0;exitY=0.5;exitDx=0;exitDy=0;entryX=1;entryY=0.5;entryDx=0;entryDy=0;strokeWidth=1;fontSize=12;" parent="1" source="XSlXfkg2FwHnw0k_7yCL-73" target="XSlXfkg2FwHnw0k_7yCL-76" edge="1">
                    <mxGeometry relative="1" as="geometry"/>
                </mxCell>
                <mxCell id="XSlXfkg2FwHnw0k_7yCL-73" value="Complex Querying Logic" style="text;html=1;strokeColor=none;fillColor=none;align=center;verticalAlign=middle;whiteSpace=wrap;rounded=0;fontSize=12;" parent="1" vertex="1">
                    <mxGeometry x="60" y="40" width="65" height="30" as="geometry"/>
                </mxCell>
                <mxCell id="XSlXfkg2FwHnw0k_7yCL-75" value="Result" style="text;html=1;strokeColor=none;fillColor=none;align=center;verticalAlign=top;whiteSpace=wrap;rounded=0;fontStyle=2;fontSize=8;" parent="1" vertex="1">
                    <mxGeometry x="610" y="42.5" width="30" height="25" as="geometry"/>
                </mxCell>
                <mxCell id="XSlXfkg2FwHnw0k_7yCL-76" value="Result" style="text;html=1;strokeColor=none;fillColor=none;align=center;verticalAlign=top;whiteSpace=wrap;rounded=0;fontStyle=2;fontSize=8;" parent="1" vertex="1">
                    <mxGeometry x="10" y="42.5" width="30" height="25" as="geometry"/>
                </mxCell>
                <mxCell id="XSlXfkg2FwHnw0k_7yCL-78" value="Complex logic needs to be developed &amp;amp; tested. Dataframe libraries cannot do high-level logical optimisation of developer's code" style="text;html=1;strokeColor=none;fillColor=none;align=center;verticalAlign=middle;whiteSpace=wrap;rounded=0;fontSize=8;fontColor=#FF0000;" parent="1" vertex="1">
                    <mxGeometry x="35" y="100" width="190" height="30" as="geometry"/>
                </mxCell>
                <mxCell id="XSlXfkg2FwHnw0k_7yCL-79" value="Queries run on a system designed for&amp;nbsp; long-term storage, logic must be expressable in the query language used." style="text;html=1;strokeColor=none;fillColor=none;align=center;verticalAlign=middle;whiteSpace=wrap;rounded=0;fontSize=8;fontColor=#FF0000;" parent="1" vertex="1">
                    <mxGeometry x="440" y="102.5" width="190" height="25" as="geometry"/>
                </mxCell>
            </root>
        </mxGraphModel>
    </diagram>
</mxfile>